<svg width="375" height="277" fill="none" xmlns="http://www.w3.org/2000/svg"><path d="M375 168.101v-478.8L187.478-418.486-.045-310.699v478.8l187.523 107.793L375 168.101z" fill="url(#paint0_linear_)"/><g style="mix-blend-mode:luminosity" opacity=".4"><path d="M1.837 61.393v107.404l93.29 53.708 93.291-53.708V61.393L95.128 7.686 1.837 61.393z" fill="url(#paint1_linear_)"/><path d="M1.837-46.017V61.388l93.29 53.707 93.291-53.707V-46.017l-93.29-53.707L1.837-46.017z" fill="url(#paint2_linear_)"/><path d="M281.709-99.696V7.708l-93.291 53.708-93.29-53.708V-99.696l93.29-53.707 93.291 53.707z" fill="url(#paint3_linear_)"/><path d="M188.418 168.797V61.393l93.291-53.708L375 61.393v107.404l-93.291 53.707-93.291-53.707z" fill="url(#paint4_linear_)"/><path d="M375-46.017V61.388l-93.291 53.707-93.291-53.707V-46.017l93.291-53.707L375-46.017z" fill="url(#paint5_linear_)"/><path d="M281.709 222.527V115.123l-93.291-53.708-93.29 53.708v107.404l93.29 53.707 93.291-53.707z" fill="url(#paint6_linear_)"/></g><defs><linearGradient id="paint0_linear_" x1="-67.95" y1="58.938" x2="436.115" y2="232.357" gradientUnits="userSpaceOnUse"><stop stop-color="#FF008E"/><stop offset="1" stop-color="#FFCD1E"/></linearGradient><linearGradient id="paint1_linear_" x1="95.127" y1="217.565" x2="2.238" y2="59.047" gradientUnits="userSpaceOnUse"><stop stop-color="#8257E5"/><stop offset="1" stop-color="#FF008E" stop-opacity="0"/></linearGradient><linearGradient id="paint2_linear_" x1="95.127" y1="110.155" x2="2.238" y2="-48.363" gradientUnits="userSpaceOnUse"><stop stop-color="#8257E5"/><stop offset="1" stop-color="#FF008E" stop-opacity="0"/></linearGradient><linearGradient id="paint3_linear_" x1="95.127" y1="-105.732" x2="281.421" y2="6.686" gradientUnits="userSpaceOnUse"><stop stop-color="#FF008E" stop-opacity="0"/><stop offset="1" stop-color="#FFCD1E"/></linearGradient><linearGradient id="paint4_linear_" x1="375" y1="174.833" x2="188.706" y2="62.415" gradientUnits="userSpaceOnUse"><stop stop-color="#FF008E" stop-opacity="0"/><stop offset="1" stop-color="#FFCD1E"/></linearGradient><linearGradient id="paint5_linear_" x1="281.709" y1="110.155" x2="374.598" y2="-48.363" gradientUnits="userSpaceOnUse"><stop stop-color="#8257E5"/><stop offset="1" stop-color="#FF008E" stop-opacity="0"/></linearGradient><linearGradient id="paint6_linear_" x1="188.418" y1="66.355" x2="281.307" y2="224.873" gradientUnits="userSpaceOnUse"><stop stop-color="#8257E5"/><stop offset="1" stop-color="#FF008E" stop-opacity="0"/></linearGradient></defs></svg>