<svg width="2406" height="1453" fill="none" xmlns="http://www.w3.org/2000/svg"><path transform="matrix(-1 -.002 .00205 -1 2398.58 1448.49)" fill="url(#paint0_linear_)" d="M0 0h2398.37v1443.6H0z"/><mask id="a" style="mask-type:alpha" maskUnits="userSpaceOnUse" x="4" y="6" width="2402" height="1447"><path transform="matrix(-1 -.002 .00205 -1 2402.36 1452.35)" fill="url(#paint1_linear_)" d="M0 0h2398.37v1441.57H0z"/></mask><g mask="url(#a)"><g style="mix-blend-mode:luminosity" opacity=".4"><path d="M2403.46 916.576l.25-123.456L2254 731.087l-149.97 61.436-.25 123.456 149.71 62.033 149.97-61.436z" fill="url(#paint2_linear_)"/><path d="M2403.21 1040.04l.25-123.459-149.71-62.032-149.97 61.435-.25 123.456 149.71 62.03 149.97-61.43z" fill="url(#paint3_linear_)"/><path d="M1953.56 1100.84l.26-123.452 149.96-61.435 149.72 62.033-.26 123.454-149.96 61.44-149.72-62.04z" fill="url(#paint4_linear_)"/><path d="M2104.03 792.522l-.25 123.456-149.96 61.436-149.72-62.033.26-123.457 149.96-61.435 149.71 62.033z" fill="url(#paint5_linear_)"/><path d="M1803.85 1038.84l.25-123.453 149.97-61.436 149.71 62.033-.25 123.456-149.97 61.44-149.71-62.04z" fill="url(#paint6_linear_)"/><path d="M1954.32 730.464l-.25 123.456 149.71 62.033 149.97-61.436.25-123.456-149.71-62.033-149.97 61.436z" fill="url(#paint7_linear_)"/></g><g style="mix-blend-mode:luminosity" opacity=".4"><path d="M1204.28 914.186l.25-123.456-149.71-62.033-149.965 61.435-.253 123.457 149.708 62.033 149.97-61.436z" fill="url(#paint8_linear_)"/><path d="M1204.03 1037.65l.25-123.458-149.71-62.033-149.968 61.436-.253 123.455 149.711 62.03 149.97-61.43z" fill="url(#paint9_linear_)"/><path d="M754.383 1098.45l.253-123.452 149.966-61.436 149.708 62.033-.25 123.455-149.964 61.44-149.713-62.04z" fill="url(#paint10_linear_)"/><path d="M904.854 790.132l-.253 123.456-149.966 61.436-149.712-62.033.253-123.456 149.965-61.436 149.713 62.033z" fill="url(#paint11_linear_)"/><path d="M604.67 1036.45l.253-123.452 149.966-61.436 149.713 62.033-.253 123.455-149.966 61.44-149.713-62.04z" fill="url(#paint12_linear_)"/><path d="M755.142 728.073l-.253 123.457 149.713 62.032 149.968-61.435.25-123.457-149.712-62.032-149.966 61.435z" fill="url(#paint13_linear_)"/></g><g style="mix-blend-mode:luminosity" opacity=".4"><path d="M1803.87 915.381l.25-123.456-149.71-62.033-149.97 61.435-.25 123.457 149.71 62.033 149.97-61.436z" fill="url(#paint14_linear_)"/><path d="M1803.61 1038.84l.26-123.454-149.71-62.033-149.97 61.436-.25 123.461 149.71 62.03 149.96-61.44z" fill="url(#paint15_linear_)"/><path d="M1353.97 1099.65l.26-123.457 149.96-61.436 149.71 62.033-.25 123.46-149.96 61.43-149.72-62.03z" fill="url(#paint16_linear_)"/><path d="M1504.44 791.327l-.25 123.456-149.96 61.436-149.72-62.033.26-123.456 149.96-61.436 149.71 62.033z" fill="url(#paint17_linear_)"/><path d="M1204.26 1037.65l.25-123.458 149.97-61.436 149.71 62.033-.25 123.461-149.97 61.43-149.71-62.03z" fill="url(#paint18_linear_)"/><path d="M1354.73 729.268l-.25 123.457 149.71 62.032 149.97-61.435.25-123.457-149.71-62.033-149.97 61.436z" fill="url(#paint19_linear_)"/></g><g style="mix-blend-mode:luminosity" opacity=".4"><path d="M604.689 912.992l.253-123.457-149.712-62.033-149.966 61.436-.253 123.456 149.713 62.033 149.965-61.435z" fill="url(#paint20_linear_)"/><path d="M604.436 1036.45l.253-123.453-149.712-62.033-149.966 61.435-.253 123.461 149.713 62.03 149.965-61.44z" fill="url(#paint21_linear_)"/><path d="M154.792 1097.26l.253-123.457 149.966-61.435 149.712 62.033-.253 123.459-149.965 61.43-149.713-62.03z" fill="url(#paint22_linear_)"/><path d="M305.263 788.936l-.253 123.456-149.965 61.436L5.332 911.795l.253-123.457 149.966-61.435 149.712 62.033z" fill="url(#paint23_linear_)"/><path d="M5.08 1035.26l.253-123.458 149.965-61.435 149.713 62.032-.253 123.461-149.966 61.43L5.08 1035.26z" fill="url(#paint24_linear_)"/><path d="M155.551 726.879l-.253 123.456 149.713 62.033 149.965-61.436.254-123.456-149.713-62.033-149.966 61.436z" fill="url(#paint25_linear_)"/></g><g style="mix-blend-mode:luminosity" opacity=".4"><path d="M2404.22 546.61l.25-123.456-149.71-62.033-149.97 61.436-.25 123.456 149.71 62.033 149.97-61.436z" fill="url(#paint26_linear_)"/><path d="M2403.96 670.073l.26-123.456-149.72-62.033-149.96 61.436-.25 123.456L2254 731.509l149.96-61.436z" fill="url(#paint27_linear_)"/><path d="M1954.32 730.88l.25-123.456 149.97-61.436 149.71 62.033-.25 123.457-149.97 61.435-149.71-62.033z" fill="url(#paint28_linear_)"/><path d="M2104.79 422.558l-.25 123.457-149.97 61.435-149.71-62.032.25-123.457 149.97-61.435 149.71 62.032z" fill="url(#paint29_linear_)"/><path d="M1804.61 668.879l.25-123.457 149.97-61.435 149.71 62.033-.25 123.456-149.97 61.436-149.71-62.033z" fill="url(#paint30_linear_)"/><path d="M1955.08 360.499l-.25 123.457 149.71 62.032 149.96-61.435.26-123.457-149.71-62.033-149.97 61.436z" fill="url(#paint31_linear_)"/></g><g style="mix-blend-mode:luminosity" opacity=".4"><path d="M1205.04 544.222l.25-123.456-149.71-62.033-149.967 61.435-.253 123.457 149.71 62.033 149.97-61.436z" fill="url(#paint32_linear_)"/><path d="M1204.79 667.685l.25-123.457-149.71-62.033-149.97 61.436-.253 123.456 149.713 62.033 149.97-61.435z" fill="url(#paint33_linear_)"/><path d="M755.141 728.491l.253-123.457 149.966-61.435 149.71 62.032-.25 123.457-149.966 61.435-149.713-62.032z" fill="url(#paint34_linear_)"/><path d="M905.613 420.17l-.253 123.456-149.966 61.436-149.712-62.033.253-123.456L755.9 358.137l149.713 62.033z" fill="url(#paint35_linear_)"/><path d="M605.429 666.49l.253-123.456 149.965-61.436 149.713 62.033-.253 123.456-149.966 61.436-149.712-62.033z" fill="url(#paint36_linear_)"/><path d="M755.9 358.109l-.253 123.457 149.713 62.033 149.97-61.436.25-123.456-149.714-62.033L755.9 358.109z" fill="url(#paint37_linear_)"/></g><g style="mix-blend-mode:luminosity" opacity=".4"><path d="M1804.63 545.416l.25-123.457-149.71-62.032-149.97 61.435-.25 123.457 149.71 62.032 149.97-61.435z" fill="url(#paint38_linear_)"/><path d="M1804.37 668.878l.26-123.457-149.72-62.033-149.96 61.436-.25 123.456 149.71 62.033 149.96-61.435z" fill="url(#paint39_linear_)"/><path d="M1354.73 729.684l.26-123.457 149.96-61.435 149.71 62.032-.25 123.457-149.97 61.436-149.71-62.033z" fill="url(#paint40_linear_)"/><path d="M1505.2 421.363l-.25 123.456-149.96 61.436-149.72-62.033.26-123.457 149.96-61.435 149.71 62.033z" fill="url(#paint41_linear_)"/><path d="M1205.02 667.683l.25-123.456 149.97-61.436 149.71 62.033-.25 123.456-149.97 61.436-149.71-62.033z" fill="url(#paint42_linear_)"/><path d="M1355.49 359.302l-.25 123.457 149.71 62.033 149.97-61.436.25-123.456-149.71-62.033-149.97 61.435z" fill="url(#paint43_linear_)"/></g><g style="mix-blend-mode:luminosity" opacity=".4"><path d="M605.448 543.026l.253-123.456-149.712-62.033-149.966 61.435-.253 123.457 149.713 62.033 149.965-61.436z" fill="url(#paint44_linear_)"/><path d="M605.195 666.489l.253-123.456L455.736 481 305.77 542.436l-.253 123.456 149.713 62.033 149.965-61.436z" fill="url(#paint45_linear_)"/><path d="M155.551 727.295l.253-123.456 149.966-61.436 149.712 62.033-.253 123.457-149.965 61.435-149.713-62.033z" fill="url(#paint46_linear_)"/><path d="M306.023 418.974l-.253 123.457-149.966 61.435L6.092 541.834l.253-123.457 149.965-61.435 149.713 62.032z" fill="url(#paint47_linear_)"/><path d="M5.839 665.295l.253-123.457 149.965-61.435 149.713 62.033-.253 123.456-149.966 61.436L5.839 665.295z" fill="url(#paint48_linear_)"/><path d="M156.31 356.914l-.253 123.457 149.713 62.032 149.966-61.435.253-123.457-149.713-62.033-149.966 61.436z" fill="url(#paint49_linear_)"/></g><g style="mix-blend-mode:luminosity" opacity=".4"><path d="M2404.98 176.647l.25-123.456-149.71-62.033-149.97 61.435-.25 123.457 149.71 62.033 149.97-61.436z" fill="url(#paint50_linear_)"/><path d="M2404.72 300.109l.26-123.456-149.72-62.033-149.96 61.436-.26 123.456 149.72 62.033 149.96-61.436z" fill="url(#paint51_linear_)"/><path d="M1955.08 360.915l.25-123.456 149.97-61.436 149.71 62.033-.25 123.457-149.97 61.435-149.71-62.033z" fill="url(#paint52_linear_)"/><path d="M2105.55 52.594l-.25 123.457-149.97 61.435-149.71-62.033.25-123.456L1955.84-9.44l149.71 62.033z" fill="url(#paint53_linear_)"/><path d="M1805.37 298.915l.25-123.456 149.97-61.436 149.71 62.033-.26 123.456-149.96 61.436-149.71-62.033z" fill="url(#paint54_linear_)"/><path d="M1955.84-9.466l-.25 123.457 149.71 62.032 149.96-61.435.26-123.457L2105.8-70.9 1955.84-9.466z" fill="url(#paint55_linear_)"/></g><g style="mix-blend-mode:luminosity" opacity=".4"><path d="M1205.8 174.257l.25-123.456-149.71-62.033-149.968 61.435-.253 123.457 149.711 62.033 149.97-61.436z" fill="url(#paint56_linear_)"/><path d="M1205.54 297.719l.26-123.456-149.72-62.033-149.962 61.436-.253 123.456 149.715 62.033 149.96-61.436z" fill="url(#paint57_linear_)"/><path d="M755.9 358.526l.253-123.457 149.966-61.435 149.711 62.033-.25 123.456-149.967 61.436L755.9 358.526z" fill="url(#paint58_linear_)"/><path d="M906.371 50.204l-.253 123.457-149.965 61.435-149.713-62.033.253-123.456 149.966-61.436 149.712 62.033z" fill="url(#paint59_linear_)"/><path d="M606.187 296.525l.253-123.457 149.966-61.435 149.712 62.033-.253 123.456L755.9 358.558l-149.713-62.033z" fill="url(#paint60_linear_)"/><path d="M756.659-11.855l-.253 123.456 149.713 62.033 149.961-61.436.26-123.456-149.715-62.033-149.966 61.435z" fill="url(#paint61_linear_)"/></g><g style="mix-blend-mode:luminosity" opacity=".4"><path d="M1805.39 175.452l.25-123.457-149.71-62.033-149.97 61.436-.25 123.456 149.71 62.033 149.97-61.435z" fill="url(#paint62_linear_)"/><path d="M1805.13 298.914l.26-123.457-149.72-62.032-149.96 61.435-.26 123.457 149.72 62.032 149.96-61.435z" fill="url(#paint63_linear_)"/><path d="M1355.49 359.72l.25-123.456 149.97-61.436 149.71 62.033-.25 123.456-149.97 61.436-149.71-62.033z" fill="url(#paint64_linear_)"/><path d="M1505.96 51.4l-.25 123.456-149.97 61.436-149.71-62.033.25-123.456 149.97-61.436L1505.96 51.4z" fill="url(#paint65_linear_)"/><path d="M1205.78 297.719l.25-123.456L1356 112.827l149.71 62.033-.26 123.457-149.96 61.435-149.71-62.033z" fill="url(#paint66_linear_)"/><path d="M1356.25-10.661l-.25 123.456 149.71 62.033 149.96-61.435.26-123.457-149.71-62.033-149.97 61.436z" fill="url(#paint67_linear_)"/></g><g style="mix-blend-mode:luminosity" opacity=".4"><path d="M606.205 173.062l.253-123.457-149.712-62.032L306.78 49.008l-.253 123.457 149.713 62.032 149.965-61.435z" fill="url(#paint68_linear_)"/><path d="M605.953 296.524l.253-123.456-149.713-62.033-149.966 61.435-.253 123.457 149.713 62.033 149.966-61.436z" fill="url(#paint69_linear_)"/><path d="M156.309 357.331l.253-123.457 149.965-61.436 149.713 62.033-.253 123.457-149.966 61.435-149.712-62.032z" fill="url(#paint70_linear_)"/><path d="M306.781 49.01l-.253 123.457-149.966 61.435L6.849 171.87l.253-123.457 149.966-61.435L306.781 49.01z" fill="url(#paint71_linear_)"/><path d="M6.596 295.33l.253-123.457 149.966-61.435 149.712 62.032-.253 123.457-149.965 61.436L6.596 295.33z" fill="url(#paint72_linear_)"/><path d="M157.068-13.05l-.253 123.456 149.712 62.032 149.966-61.435.253-123.457-149.713-62.032-149.965 61.435z" fill="url(#paint73_linear_)"/></g><g style="mix-blend-mode:luminosity" opacity=".4"><path d="M2402.7 1286.54l.25-123.46-149.71-62.03-149.96 61.44-.26 123.45 149.71 62.03 149.97-61.43z" fill="url(#paint74_linear_)"/><path d="M2402.45 1410l.25-123.45-149.71-62.04-149.97 61.44-.25 123.46 149.71 62.03 149.97-61.44z" fill="url(#paint75_linear_)"/><path d="M1952.81 1470.81l.25-123.46 149.96-61.43 149.72 62.03-.26 123.46-149.96 61.43-149.71-62.03z" fill="url(#paint76_linear_)"/><path d="M2103.28 1162.49l-.26 123.45-149.96 61.44-149.72-62.03.26-123.46 149.96-61.44 149.72 62.04z" fill="url(#paint77_linear_)"/><path d="M1803.09 1408.81l.25-123.46 149.97-61.43 149.71 62.03-.25 123.46-149.97 61.43-149.71-62.03z" fill="url(#paint78_linear_)"/><path d="M1953.56 1100.43l-.25 123.45 149.71 62.04 149.97-61.44.25-123.46-149.71-62.03-149.97 61.44z" fill="url(#paint79_linear_)"/></g><g style="mix-blend-mode:luminosity" opacity=".4"><path d="M1203.52 1284.15l.25-123.46-149.71-62.03-149.964 61.44-.253 123.45 149.717 62.04 149.96-61.44z" fill="url(#paint80_linear_)"/><path d="M1203.27 1407.61l.25-123.45-149.71-62.04-149.967 61.44-.253 123.46 149.71 62.03 149.97-61.44z" fill="url(#paint81_linear_)"/><path d="M753.624 1468.42l.253-123.46 149.966-61.43 149.717 62.03-.26 123.46-149.964 61.43-149.712-62.03z" fill="url(#paint82_linear_)"/><path d="M904.095 1160.1l-.253 123.45-149.966 61.44-149.713-62.03.253-123.46 149.966-61.44 149.713 62.04z" fill="url(#paint83_linear_)"/><path d="M603.911 1406.42l.253-123.46 149.966-61.43 149.713 62.03-.253 123.46-149.966 61.43-149.713-62.03z" fill="url(#paint84_linear_)"/><path d="M754.383 1098.04l-.253 123.45 149.713 62.04 149.967-61.44.25-123.46-149.711-62.03-149.966 61.44z" fill="url(#paint85_linear_)"/></g><g style="mix-blend-mode:luminosity" opacity=".4"><path d="M1803.11 1285.34l.25-123.45-149.71-62.03-149.97 61.43-.25 123.46 149.71 62.03 149.97-61.44z" fill="url(#paint86_linear_)"/><path d="M1802.86 1408.81l.25-123.46-149.71-62.03-149.97 61.43-.25 123.46 149.71 62.03 149.97-61.43z" fill="url(#paint87_linear_)"/><path d="M1353.21 1469.61l.26-123.45 149.96-61.44 149.72 62.03-.26 123.46-149.96 61.44-149.72-62.04z" fill="url(#paint88_linear_)"/><path d="M1503.69 1161.29l-.26 123.46-149.96 61.43-149.72-62.03.26-123.46 149.96-61.43 149.72 62.03z" fill="url(#paint89_linear_)"/><path d="M1203.5 1407.61l.25-123.45 149.97-61.44 149.71 62.03-.25 123.46-149.97 61.44-149.71-62.04z" fill="url(#paint90_linear_)"/><path d="M1353.97 1099.23l-.25 123.46 149.71 62.03 149.97-61.43.25-123.46-149.71-62.03-149.97 61.43z" fill="url(#paint91_linear_)"/></g><g style="mix-blend-mode:luminosity" opacity=".4"><path d="M603.931 1282.96l.253-123.46-149.713-62.03-149.965 61.43-.253 123.46 149.712 62.03 149.966-61.43z" fill="url(#paint92_linear_)"/><path d="M603.678 1406.42l.253-123.46-149.713-62.03-149.965 61.43-.253 123.46 149.712 62.03 149.966-61.43z" fill="url(#paint93_linear_)"/><path d="M154.034 1467.22l.253-123.45 149.966-61.44 149.712 62.04-.253 123.45-149.966 61.44-149.712-62.04z" fill="url(#paint94_linear_)"/><path d="M304.505 1158.9l-.253 123.46-149.966 61.43-149.712-62.03.253-123.46 149.965-61.43 149.713 62.03z" fill="url(#paint95_linear_)"/><path d="M4.321 1405.22l.253-123.45 149.966-61.44 149.713 62.03-.253 123.46-149.966 61.44-149.713-62.04z" fill="url(#paint96_linear_)"/><path d="M154.793 1096.84l-.253 123.46 149.713 62.03 149.965-61.43.253-123.46-149.712-62.03-149.966 61.43z" fill="url(#paint97_linear_)"/></g></g><defs><linearGradient id="paint0_linear_" x1="749.489" y1="0" x2="749.489" y2="1443.6" gradientUnits="userSpaceOnUse"><stop stop-color="#FF008E"/><stop offset="1" stop-color="#FFCD1E"/></linearGradient><linearGradient id="paint1_linear_" x1="749.489" y1="0" x2="749.489" y2="1441.57" gradientUnits="userSpaceOnUse"><stop stop-color="#FF008E"/><stop offset="1" stop-color="#FFCD1E"/></linearGradient><linearGradient id="paint2_linear_" x1="2253.99" y1="736.765" x2="2340.87" y2="945.102" gradientUnits="userSpaceOnUse"><stop stop-color="#8257E5"/><stop offset="1" stop-color="#FF008E" stop-opacity="0"/></linearGradient><linearGradient id="paint3_linear_" x1="2253.74" y1="860.226" x2="2340.62" y2="1068.56" gradientUnits="userSpaceOnUse"><stop stop-color="#8257E5"/><stop offset="1" stop-color="#FF008E" stop-opacity="0"/></linearGradient><linearGradient id="paint4_linear_" x1="2253.23" y1="1108.38" x2="2015.08" y2="906.748" gradientUnits="userSpaceOnUse"><stop stop-color="#FF008E" stop-opacity="0"/><stop offset="1" stop-color="#FFCD1E"/></linearGradient><linearGradient id="paint5_linear_" x1="1804.37" y1="784.986" x2="2042.52" y2="986.618" gradientUnits="userSpaceOnUse"><stop stop-color="#FF008E" stop-opacity="0"/><stop offset="1" stop-color="#FFCD1E"/></linearGradient><linearGradient id="paint6_linear_" x1="1954.06" y1="859.629" x2="1866.34" y2="1067.63" gradientUnits="userSpaceOnUse"><stop stop-color="#8257E5"/><stop offset="1" stop-color="#FF008E" stop-opacity="0"/></linearGradient><linearGradient id="paint7_linear_" x1="2103.79" y1="910.275" x2="2016.91" y2="701.938" gradientUnits="userSpaceOnUse"><stop stop-color="#8257E5"/><stop offset="1" stop-color="#FF008E" stop-opacity="0"/></linearGradient><linearGradient id="paint8_linear_" x1="1054.81" y1="734.375" x2="1141.69" y2="942.712" gradientUnits="userSpaceOnUse"><stop stop-color="#8257E5"/><stop offset="1" stop-color="#FF008E" stop-opacity="0"/></linearGradient><linearGradient id="paint9_linear_" x1="1054.56" y1="857.837" x2="1141.44" y2="1066.17" gradientUnits="userSpaceOnUse"><stop stop-color="#8257E5"/><stop offset="1" stop-color="#FF008E" stop-opacity="0"/></linearGradient><linearGradient id="paint10_linear_" x1="1054.05" y1="1105.99" x2="815.901" y2="904.358" gradientUnits="userSpaceOnUse"><stop stop-color="#FF008E" stop-opacity="0"/><stop offset="1" stop-color="#FFCD1E"/></linearGradient><linearGradient id="paint11_linear_" x1="605.19" y1="782.596" x2="843.336" y2="984.228" gradientUnits="userSpaceOnUse"><stop stop-color="#FF008E" stop-opacity="0"/><stop offset="1" stop-color="#FFCD1E"/></linearGradient><linearGradient id="paint12_linear_" x1="754.877" y1="857.24" x2="667.161" y2="1065.24" gradientUnits="userSpaceOnUse"><stop stop-color="#8257E5"/><stop offset="1" stop-color="#FF008E" stop-opacity="0"/></linearGradient><linearGradient id="paint13_linear_" x1="904.613" y1="907.885" x2="817.734" y2="699.548" gradientUnits="userSpaceOnUse"><stop stop-color="#8257E5"/><stop offset="1" stop-color="#FF008E" stop-opacity="0"/></linearGradient><linearGradient id="paint14_linear_" x1="1654.4" y1="735.57" x2="1741.28" y2="943.907" gradientUnits="userSpaceOnUse"><stop stop-color="#8257E5"/><stop offset="1" stop-color="#FF008E" stop-opacity="0"/></linearGradient><linearGradient id="paint15_linear_" x1="1654.14" y1="859.031" x2="1741.02" y2="1067.37" gradientUnits="userSpaceOnUse"><stop stop-color="#8257E5"/><stop offset="1" stop-color="#FF008E" stop-opacity="0"/></linearGradient><linearGradient id="paint16_linear_" x1="1653.64" y1="1107.18" x2="1415.49" y2="905.553" gradientUnits="userSpaceOnUse"><stop stop-color="#FF008E" stop-opacity="0"/><stop offset="1" stop-color="#FFCD1E"/></linearGradient><linearGradient id="paint17_linear_" x1="1204.78" y1="783.791" x2="1442.93" y2="985.423" gradientUnits="userSpaceOnUse"><stop stop-color="#FF008E" stop-opacity="0"/><stop offset="1" stop-color="#FFCD1E"/></linearGradient><linearGradient id="paint18_linear_" x1="1354.47" y1="858.434" x2="1266.75" y2="1066.43" gradientUnits="userSpaceOnUse"><stop stop-color="#8257E5"/><stop offset="1" stop-color="#FF008E" stop-opacity="0"/></linearGradient><linearGradient id="paint19_linear_" x1="1504.2" y1="909.079" x2="1417.32" y2="700.742" gradientUnits="userSpaceOnUse"><stop stop-color="#8257E5"/><stop offset="1" stop-color="#FF008E" stop-opacity="0"/></linearGradient><linearGradient id="paint20_linear_" x1="455.218" y1="733.18" x2="542.098" y2="941.517" gradientUnits="userSpaceOnUse"><stop stop-color="#8257E5"/><stop offset="1" stop-color="#FF008E" stop-opacity="0"/></linearGradient><linearGradient id="paint21_linear_" x1="454.965" y1="856.642" x2="541.844" y2="1064.98" gradientUnits="userSpaceOnUse"><stop stop-color="#8257E5"/><stop offset="1" stop-color="#FF008E" stop-opacity="0"/></linearGradient><linearGradient id="paint22_linear_" x1="454.456" y1="1104.8" x2="216.31" y2="903.164" gradientUnits="userSpaceOnUse"><stop stop-color="#FF008E" stop-opacity="0"/><stop offset="1" stop-color="#FFCD1E"/></linearGradient><linearGradient id="paint23_linear_" x1="5.599" y1="781.4" x2="243.745" y2="983.032" gradientUnits="userSpaceOnUse"><stop stop-color="#FF008E" stop-opacity="0"/><stop offset="1" stop-color="#FFCD1E"/></linearGradient><linearGradient id="paint24_linear_" x1="155.287" y1="856.045" x2="67.57" y2="1064.04" gradientUnits="userSpaceOnUse"><stop stop-color="#8257E5"/><stop offset="1" stop-color="#FF008E" stop-opacity="0"/></linearGradient><linearGradient id="paint25_linear_" x1="305.022" y1="906.69" x2="218.143" y2="698.353" gradientUnits="userSpaceOnUse"><stop stop-color="#8257E5"/><stop offset="1" stop-color="#FF008E" stop-opacity="0"/></linearGradient><linearGradient id="paint26_linear_" x1="2254.74" y1="366.799" x2="2341.62" y2="575.136" gradientUnits="userSpaceOnUse"><stop stop-color="#8257E5"/><stop offset="1" stop-color="#FF008E" stop-opacity="0"/></linearGradient><linearGradient id="paint27_linear_" x1="2254.49" y1="490.262" x2="2341.37" y2="698.599" gradientUnits="userSpaceOnUse"><stop stop-color="#8257E5"/><stop offset="1" stop-color="#FF008E" stop-opacity="0"/></linearGradient><linearGradient id="paint28_linear_" x1="2253.98" y1="738.416" x2="2015.84" y2="536.784" gradientUnits="userSpaceOnUse"><stop stop-color="#FF008E" stop-opacity="0"/><stop offset="1" stop-color="#FFCD1E"/></linearGradient><linearGradient id="paint29_linear_" x1="1805.13" y1="415.023" x2="2043.27" y2="616.655" gradientUnits="userSpaceOnUse"><stop stop-color="#FF008E" stop-opacity="0"/><stop offset="1" stop-color="#FFCD1E"/></linearGradient><linearGradient id="paint30_linear_" x1="1954.81" y1="489.665" x2="1867.1" y2="697.661" gradientUnits="userSpaceOnUse"><stop stop-color="#8257E5"/><stop offset="1" stop-color="#FF008E" stop-opacity="0"/></linearGradient><linearGradient id="paint31_linear_" x1="2104.55" y1="540.31" x2="2017.67" y2="331.973" gradientUnits="userSpaceOnUse"><stop stop-color="#8257E5"/><stop offset="1" stop-color="#FF008E" stop-opacity="0"/></linearGradient><linearGradient id="paint32_linear_" x1="1055.57" y1="364.411" x2="1142.45" y2="572.748" gradientUnits="userSpaceOnUse"><stop stop-color="#8257E5"/><stop offset="1" stop-color="#FF008E" stop-opacity="0"/></linearGradient><linearGradient id="paint33_linear_" x1="1055.31" y1="487.873" x2="1142.19" y2="696.21" gradientUnits="userSpaceOnUse"><stop stop-color="#8257E5"/><stop offset="1" stop-color="#FF008E" stop-opacity="0"/></linearGradient><linearGradient id="paint34_linear_" x1="1054.81" y1="736.026" x2="816.66" y2="534.394" gradientUnits="userSpaceOnUse"><stop stop-color="#FF008E" stop-opacity="0"/><stop offset="1" stop-color="#FFCD1E"/></linearGradient><linearGradient id="paint35_linear_" x1="605.949" y1="412.634" x2="844.095" y2="614.266" gradientUnits="userSpaceOnUse"><stop stop-color="#FF008E" stop-opacity="0"/><stop offset="1" stop-color="#FFCD1E"/></linearGradient><linearGradient id="paint36_linear_" x1="755.636" y1="487.276" x2="667.92" y2="695.272" gradientUnits="userSpaceOnUse"><stop stop-color="#8257E5"/><stop offset="1" stop-color="#FF008E" stop-opacity="0"/></linearGradient><linearGradient id="paint37_linear_" x1="905.372" y1="537.921" x2="818.492" y2="329.584" gradientUnits="userSpaceOnUse"><stop stop-color="#8257E5"/><stop offset="1" stop-color="#FF008E" stop-opacity="0"/></linearGradient><linearGradient id="paint38_linear_" x1="1655.16" y1="365.604" x2="1742.03" y2="573.941" gradientUnits="userSpaceOnUse"><stop stop-color="#8257E5"/><stop offset="1" stop-color="#FF008E" stop-opacity="0"/></linearGradient><linearGradient id="paint39_linear_" x1="1654.9" y1="489.066" x2="1741.78" y2="697.403" gradientUnits="userSpaceOnUse"><stop stop-color="#8257E5"/><stop offset="1" stop-color="#FF008E" stop-opacity="0"/></linearGradient><linearGradient id="paint40_linear_" x1="1654.4" y1="737.219" x2="1416.25" y2="535.587" gradientUnits="userSpaceOnUse"><stop stop-color="#FF008E" stop-opacity="0"/><stop offset="1" stop-color="#FFCD1E"/></linearGradient><linearGradient id="paint41_linear_" x1="1205.54" y1="413.827" x2="1443.69" y2="615.459" gradientUnits="userSpaceOnUse"><stop stop-color="#FF008E" stop-opacity="0"/><stop offset="1" stop-color="#FFCD1E"/></linearGradient><linearGradient id="paint42_linear_" x1="1355.22" y1="488.469" x2="1267.51" y2="696.465" gradientUnits="userSpaceOnUse"><stop stop-color="#8257E5"/><stop offset="1" stop-color="#FF008E" stop-opacity="0"/></linearGradient><linearGradient id="paint43_linear_" x1="1504.96" y1="539.114" x2="1418.08" y2="330.777" gradientUnits="userSpaceOnUse"><stop stop-color="#8257E5"/><stop offset="1" stop-color="#FF008E" stop-opacity="0"/></linearGradient><linearGradient id="paint44_linear_" x1="455.977" y1="363.215" x2="542.857" y2="571.552" gradientUnits="userSpaceOnUse"><stop stop-color="#8257E5"/><stop offset="1" stop-color="#FF008E" stop-opacity="0"/></linearGradient><linearGradient id="paint45_linear_" x1="455.724" y1="486.678" x2="542.603" y2="695.015" gradientUnits="userSpaceOnUse"><stop stop-color="#8257E5"/><stop offset="1" stop-color="#FF008E" stop-opacity="0"/></linearGradient><linearGradient id="paint46_linear_" x1="455.215" y1="734.831" x2="217.069" y2="533.199" gradientUnits="userSpaceOnUse"><stop stop-color="#FF008E" stop-opacity="0"/><stop offset="1" stop-color="#FFCD1E"/></linearGradient><linearGradient id="paint47_linear_" x1="6.359" y1="411.439" x2="244.505" y2="613.071" gradientUnits="userSpaceOnUse"><stop stop-color="#FF008E" stop-opacity="0"/><stop offset="1" stop-color="#FFCD1E"/></linearGradient><linearGradient id="paint48_linear_" x1="156.046" y1="486.081" x2="68.33" y2="694.077" gradientUnits="userSpaceOnUse"><stop stop-color="#8257E5"/><stop offset="1" stop-color="#FF008E" stop-opacity="0"/></linearGradient><linearGradient id="paint49_linear_" x1="305.782" y1="536.725" x2="218.902" y2="328.388" gradientUnits="userSpaceOnUse"><stop stop-color="#8257E5"/><stop offset="1" stop-color="#FF008E" stop-opacity="0"/></linearGradient><linearGradient id="paint50_linear_" x1="2255.5" y1="-3.164" x2="2342.38" y2="205.173" gradientUnits="userSpaceOnUse"><stop stop-color="#8257E5"/><stop offset="1" stop-color="#FF008E" stop-opacity="0"/></linearGradient><linearGradient id="paint51_linear_" x1="2255.25" y1="120.298" x2="2342.13" y2="328.635" gradientUnits="userSpaceOnUse"><stop stop-color="#8257E5"/><stop offset="1" stop-color="#FF008E" stop-opacity="0"/></linearGradient><linearGradient id="paint52_linear_" x1="2254.74" y1="368.451" x2="2016.6" y2="166.819" gradientUnits="userSpaceOnUse"><stop stop-color="#FF008E" stop-opacity="0"/><stop offset="1" stop-color="#FFCD1E"/></linearGradient><linearGradient id="paint53_linear_" x1="1805.89" y1="45.059" x2="2044.03" y2="246.691" gradientUnits="userSpaceOnUse"><stop stop-color="#FF008E" stop-opacity="0"/><stop offset="1" stop-color="#FFCD1E"/></linearGradient><linearGradient id="paint54_linear_" x1="1955.57" y1="119.701" x2="1867.86" y2="327.697" gradientUnits="userSpaceOnUse"><stop stop-color="#8257E5"/><stop offset="1" stop-color="#FF008E" stop-opacity="0"/></linearGradient><linearGradient id="paint55_linear_" x1="2105.31" y1="170.346" x2="2018.43" y2="-37.992" gradientUnits="userSpaceOnUse"><stop stop-color="#8257E5"/><stop offset="1" stop-color="#FF008E" stop-opacity="0"/></linearGradient><linearGradient id="paint56_linear_" x1="1056.33" y1="-5.554" x2="1143.21" y2="202.783" gradientUnits="userSpaceOnUse"><stop stop-color="#8257E5"/><stop offset="1" stop-color="#FF008E" stop-opacity="0"/></linearGradient><linearGradient id="paint57_linear_" x1="1056.07" y1="117.908" x2="1142.95" y2="326.245" gradientUnits="userSpaceOnUse"><stop stop-color="#8257E5"/><stop offset="1" stop-color="#FF008E" stop-opacity="0"/></linearGradient><linearGradient id="paint58_linear_" x1="1055.56" y1="366.061" x2="817.418" y2="164.429" gradientUnits="userSpaceOnUse"><stop stop-color="#FF008E" stop-opacity="0"/><stop offset="1" stop-color="#FFCD1E"/></linearGradient><linearGradient id="paint59_linear_" x1="606.707" y1="42.669" x2="844.853" y2="244.301" gradientUnits="userSpaceOnUse"><stop stop-color="#FF008E" stop-opacity="0"/><stop offset="1" stop-color="#FFCD1E"/></linearGradient><linearGradient id="paint60_linear_" x1="756.394" y1="117.311" x2="668.678" y2="325.307" gradientUnits="userSpaceOnUse"><stop stop-color="#8257E5"/><stop offset="1" stop-color="#FF008E" stop-opacity="0"/></linearGradient><linearGradient id="paint61_linear_" x1="906.13" y1="167.956" x2="819.251" y2="-40.381" gradientUnits="userSpaceOnUse"><stop stop-color="#8257E5"/><stop offset="1" stop-color="#FF008E" stop-opacity="0"/></linearGradient><linearGradient id="paint62_linear_" x1="1655.91" y1="-4.36" x2="1742.79" y2="203.977" gradientUnits="userSpaceOnUse"><stop stop-color="#8257E5"/><stop offset="1" stop-color="#FF008E" stop-opacity="0"/></linearGradient><linearGradient id="paint63_linear_" x1="1655.66" y1="119.102" x2="1742.54" y2="327.44" gradientUnits="userSpaceOnUse"><stop stop-color="#8257E5"/><stop offset="1" stop-color="#FF008E" stop-opacity="0"/></linearGradient><linearGradient id="paint64_linear_" x1="1655.15" y1="367.256" x2="1417.01" y2="165.624" gradientUnits="userSpaceOnUse"><stop stop-color="#FF008E" stop-opacity="0"/><stop offset="1" stop-color="#FFCD1E"/></linearGradient><linearGradient id="paint65_linear_" x1="1206.3" y1="43.864" x2="1444.44" y2="245.496" gradientUnits="userSpaceOnUse"><stop stop-color="#FF008E" stop-opacity="0"/><stop offset="1" stop-color="#FFCD1E"/></linearGradient><linearGradient id="paint66_linear_" x1="1355.98" y1="118.505" x2="1268.27" y2="326.501" gradientUnits="userSpaceOnUse"><stop stop-color="#8257E5"/><stop offset="1" stop-color="#FF008E" stop-opacity="0"/></linearGradient><linearGradient id="paint67_linear_" x1="1505.72" y1="169.15" x2="1418.84" y2="-39.187" gradientUnits="userSpaceOnUse"><stop stop-color="#8257E5"/><stop offset="1" stop-color="#FF008E" stop-opacity="0"/></linearGradient><linearGradient id="paint68_linear_" x1="456.734" y1="-6.75" x2="543.614" y2="201.587" gradientUnits="userSpaceOnUse"><stop stop-color="#8257E5"/><stop offset="1" stop-color="#FF008E" stop-opacity="0"/></linearGradient><linearGradient id="paint69_linear_" x1="456.481" y1="116.713" x2="543.361" y2="325.05" gradientUnits="userSpaceOnUse"><stop stop-color="#8257E5"/><stop offset="1" stop-color="#FF008E" stop-opacity="0"/></linearGradient><linearGradient id="paint70_linear_" x1="455.973" y1="364.866" x2="217.827" y2="163.234" gradientUnits="userSpaceOnUse"><stop stop-color="#FF008E" stop-opacity="0"/><stop offset="1" stop-color="#FFCD1E"/></linearGradient><linearGradient id="paint71_linear_" x1="7.117" y1="41.475" x2="245.262" y2="243.107" gradientUnits="userSpaceOnUse"><stop stop-color="#FF008E" stop-opacity="0"/><stop offset="1" stop-color="#FFCD1E"/></linearGradient><linearGradient id="paint72_linear_" x1="156.803" y1="116.116" x2="69.087" y2="324.112" gradientUnits="userSpaceOnUse"><stop stop-color="#8257E5"/><stop offset="1" stop-color="#FF008E" stop-opacity="0"/></linearGradient><linearGradient id="paint73_linear_" x1="306.539" y1="166.761" x2="219.66" y2="-41.577" gradientUnits="userSpaceOnUse"><stop stop-color="#8257E5"/><stop offset="1" stop-color="#FF008E" stop-opacity="0"/></linearGradient><linearGradient id="paint74_linear_" x1="2253.23" y1="1106.73" x2="2340.11" y2="1315.06" gradientUnits="userSpaceOnUse"><stop stop-color="#8257E5"/><stop offset="1" stop-color="#FF008E" stop-opacity="0"/></linearGradient><linearGradient id="paint75_linear_" x1="2252.98" y1="1230.19" x2="2339.86" y2="1438.53" gradientUnits="userSpaceOnUse"><stop stop-color="#8257E5"/><stop offset="1" stop-color="#FF008E" stop-opacity="0"/></linearGradient><linearGradient id="paint76_linear_" x1="2252.47" y1="1478.34" x2="2014.32" y2="1276.71" gradientUnits="userSpaceOnUse"><stop stop-color="#FF008E" stop-opacity="0"/><stop offset="1" stop-color="#FFCD1E"/></linearGradient><linearGradient id="paint77_linear_" x1="1803.61" y1="1154.95" x2="2041.76" y2="1356.58" gradientUnits="userSpaceOnUse"><stop stop-color="#FF008E" stop-opacity="0"/><stop offset="1" stop-color="#FFCD1E"/></linearGradient><linearGradient id="paint78_linear_" x1="1953.3" y1="1229.59" x2="1865.58" y2="1437.59" gradientUnits="userSpaceOnUse"><stop stop-color="#8257E5"/><stop offset="1" stop-color="#FF008E" stop-opacity="0"/></linearGradient><linearGradient id="paint79_linear_" x1="2103.04" y1="1280.24" x2="2016.16" y2="1071.9" gradientUnits="userSpaceOnUse"><stop stop-color="#8257E5"/><stop offset="1" stop-color="#FF008E" stop-opacity="0"/></linearGradient><linearGradient id="paint80_linear_" x1="1054.05" y1="1104.34" x2="1140.93" y2="1312.68" gradientUnits="userSpaceOnUse"><stop stop-color="#8257E5"/><stop offset="1" stop-color="#FF008E" stop-opacity="0"/></linearGradient><linearGradient id="paint81_linear_" x1="1053.8" y1="1227.8" x2="1140.68" y2="1436.14" gradientUnits="userSpaceOnUse"><stop stop-color="#8257E5"/><stop offset="1" stop-color="#FF008E" stop-opacity="0"/></linearGradient><linearGradient id="paint82_linear_" x1="1053.29" y1="1475.95" x2="815.142" y2="1274.32" gradientUnits="userSpaceOnUse"><stop stop-color="#FF008E" stop-opacity="0"/><stop offset="1" stop-color="#FFCD1E"/></linearGradient><linearGradient id="paint83_linear_" x1="604.431" y1="1152.56" x2="842.576" y2="1354.19" gradientUnits="userSpaceOnUse"><stop stop-color="#FF008E" stop-opacity="0"/><stop offset="1" stop-color="#FFCD1E"/></linearGradient><linearGradient id="paint84_linear_" x1="754.118" y1="1227.2" x2="666.402" y2="1435.2" gradientUnits="userSpaceOnUse"><stop stop-color="#8257E5"/><stop offset="1" stop-color="#FF008E" stop-opacity="0"/></linearGradient><linearGradient id="paint85_linear_" x1="903.854" y1="1277.85" x2="816.975" y2="1069.51" gradientUnits="userSpaceOnUse"><stop stop-color="#8257E5"/><stop offset="1" stop-color="#FF008E" stop-opacity="0"/></linearGradient><linearGradient id="paint86_linear_" x1="1653.64" y1="1105.53" x2="1740.52" y2="1313.87" gradientUnits="userSpaceOnUse"><stop stop-color="#8257E5"/><stop offset="1" stop-color="#FF008E" stop-opacity="0"/></linearGradient><linearGradient id="paint87_linear_" x1="1653.39" y1="1229" x2="1740.27" y2="1437.33" gradientUnits="userSpaceOnUse"><stop stop-color="#8257E5"/><stop offset="1" stop-color="#FF008E" stop-opacity="0"/></linearGradient><linearGradient id="paint88_linear_" x1="1652.88" y1="1477.15" x2="1414.73" y2="1275.52" gradientUnits="userSpaceOnUse"><stop stop-color="#FF008E" stop-opacity="0"/><stop offset="1" stop-color="#FFCD1E"/></linearGradient><linearGradient id="paint89_linear_" x1="1204.02" y1="1153.76" x2="1442.17" y2="1355.39" gradientUnits="userSpaceOnUse"><stop stop-color="#FF008E" stop-opacity="0"/><stop offset="1" stop-color="#FFCD1E"/></linearGradient><linearGradient id="paint90_linear_" x1="1353.71" y1="1228.4" x2="1265.99" y2="1436.4" gradientUnits="userSpaceOnUse"><stop stop-color="#8257E5"/><stop offset="1" stop-color="#FF008E" stop-opacity="0"/></linearGradient><linearGradient id="paint91_linear_" x1="1503.44" y1="1279.04" x2="1416.57" y2="1070.71" gradientUnits="userSpaceOnUse"><stop stop-color="#8257E5"/><stop offset="1" stop-color="#FF008E" stop-opacity="0"/></linearGradient><linearGradient id="paint92_linear_" x1="454.46" y1="1103.14" x2="541.339" y2="1311.48" gradientUnits="userSpaceOnUse"><stop stop-color="#8257E5"/><stop offset="1" stop-color="#FF008E" stop-opacity="0"/></linearGradient><linearGradient id="paint93_linear_" x1="454.207" y1="1226.61" x2="541.086" y2="1434.94" gradientUnits="userSpaceOnUse"><stop stop-color="#8257E5"/><stop offset="1" stop-color="#FF008E" stop-opacity="0"/></linearGradient><linearGradient id="paint94_linear_" x1="453.698" y1="1474.76" x2="215.552" y2="1273.13" gradientUnits="userSpaceOnUse"><stop stop-color="#FF008E" stop-opacity="0"/><stop offset="1" stop-color="#FFCD1E"/></linearGradient><linearGradient id="paint95_linear_" x1="4.841" y1="1151.37" x2="242.987" y2="1353" gradientUnits="userSpaceOnUse"><stop stop-color="#FF008E" stop-opacity="0"/><stop offset="1" stop-color="#FFCD1E"/></linearGradient><linearGradient id="paint96_linear_" x1="154.528" y1="1226.01" x2="66.812" y2="1434.01" gradientUnits="userSpaceOnUse"><stop stop-color="#8257E5"/><stop offset="1" stop-color="#FF008E" stop-opacity="0"/></linearGradient><linearGradient id="paint97_linear_" x1="304.264" y1="1276.65" x2="217.385" y2="1068.32" gradientUnits="userSpaceOnUse"><stop stop-color="#8257E5"/><stop offset="1" stop-color="#FF008E" stop-opacity="0"/></linearGradient></defs></svg>