<svg width="32" height="32" fill="none" xmlns="http://www.w3.org/2000/svg"><path clip-rule="evenodd" d="M14.667 25.33V10.005c0-.92-.474-1.775-1.254-2.261L8.08 4.409C6.304 3.3 4 4.576 4 6.671v15.325c0 .92.473 1.775 1.253 2.261l5.334 3.334c1.776 1.11 4.08-.167 4.08-2.26z" stroke="#C4C4CC" stroke-width="1.5" stroke-linecap="round" stroke-linejoin="round"/><path d="M28 14.667h-8M22.667 12L20 14.667l2.667 2.666M14.667 25.333H20a2.666 2.666 0 0 0 2.667-2.666v-1.334M22.667 8V6.667A2.666 2.666 0 0 0 20 4H6.667" stroke="#C4C4CC" stroke-width="1.5" stroke-linecap="round" stroke-linejoin="round"/></svg>