<svg width="24" height="24" fill="none" xmlns="http://www.w3.org/2000/svg"><g clip-path="url(#clip0_61385:218)"><path d="M10.724 24c-1.107 0-2.4-.006-3.676-.08a7.092 7.092 0 0 1-5.032-1.936 7.087 7.087 0 0 1-1.937-5.031C0 15.51 0 14.05 0 12.64V12v-.64c0-1.411 0-2.87.079-4.312a7.092 7.092 0 0 1 1.937-5.032A7.092 7.092 0 0 1 7.048.079a64.99 64.99 0 0 1 3.676-.08h2.553c1.107 0 2.4.007 3.677.08a7.087 7.087 0 0 1 5.031 1.937 7.092 7.092 0 0 1 1.937 5.032C24 8.49 24 9.948 24 11.36v1.279c0 1.41 0 2.87-.079 4.314a7.087 7.087 0 0 1-1.937 5.03 7.087 7.087 0 0 1-5.031 1.938c-1.281.073-2.57.079-3.677.079L10.724 24z" fill="#fff"/><path d="M17.606 6.788c.237.159.515.243.799.243h.001a1.44 1.44 0 1 0-.8-.242z" fill="#323238"/><path fill-rule="evenodd" clip-rule="evenodd" d="M12 18.156a6.156 6.156 0 1 1 .002-12.311A6.156 6.156 0 0 1 12 18.155zM12 8a4 4 0 1 0 0 8 4 4 0 0 0 0-8z" fill="#323238"/></g><defs><clipPath id="clip0_61385:218"><path fill="#fff" d="M0 0h24v24H0z"/></clipPath></defs></svg>