<svg width="25" height="20" fill="none" xmlns="http://www.w3.org/2000/svg"><g clip-path="url(#clip0_61385:207)"><path d="M24.685 2.845c-.925.391-1.905.649-2.908.765A4.903 4.903 0 0 0 24.005.93c-.993.567-2.082.966-3.217 1.18A5.12 5.12 0 0 0 18.201.687a5.28 5.28 0 0 0-2.976.22 5.025 5.025 0 0 0-2.328 1.784 4.688 4.688 0 0 0-.872 2.728c-.002.372.042.743.13 1.105a14.875 14.875 0 0 1-5.787-1.47 14.25 14.25 0 0 1-4.657-3.6 4.665 4.665 0 0 0-.553 3.534 4.855 4.855 0 0 0 2.128 2.936A5.123 5.123 0 0 1 .984 7.32v.06c0 1.12.405 2.205 1.146 3.07a5.115 5.115 0 0 0 2.922 1.682c-.435.113-.883.17-1.334.17-.32 0-.638-.03-.952-.09A4.861 4.861 0 0 0 4.57 14.62a5.227 5.227 0 0 0 2.932.957 10.458 10.458 0 0 1-6.295 2.075c-.404 0-.807-.024-1.208-.07 2.307 1.435 5 2.196 7.752 2.19 1.899.013 3.78-.335 5.537-1.024a14.388 14.388 0 0 0 4.694-2.987 13.666 13.666 0 0 0 3.124-4.488 13.162 13.162 0 0 0 1.07-5.292c0-.21 0-.42-.017-.625a10.07 10.07 0 0 0 2.527-2.51z" fill="#fff"/></g><defs><clipPath id="clip0_61385:207"><path fill="#fff" transform="translate(0 .571)" d="M0 0h24.686v19.2H0z"/></clipPath></defs></svg>