<svg width="25" height="20" fill="none" xmlns="http://www.w3.org/2000/svg"><g clip-path="url(#clip0_61385:214)"><path d="M24.525 4.81a3.972 3.972 0 0 0-.975-2.793A3.696 3.696 0 0 0 20.956.754c-2.67-.13-5.395-.183-8.178-.183h-.867c-2.777 0-5.507.05-8.178.183a3.704 3.704 0 0 0-2.592 1.27 3.982 3.982 0 0 0-.973 2.797A76.121 76.121 0 0 0 0 10.16c.005 1.78.048 3.56.164 5.345a3.987 3.987 0 0 0 .97 2.802 3.71 3.71 0 0 0 2.594 1.277c2.806.135 5.685.194 8.612.19 2.932.01 5.803-.054 8.613-.19a3.71 3.71 0 0 0 2.595-1.274 3.988 3.988 0 0 0 .973-2.801 79.71 79.71 0 0 0 .164-5.35 76.312 76.312 0 0 0-.16-5.35zM9.978 15.066V5.241l6.993 4.91-6.993 4.914z" fill="#fff"/></g><defs><clipPath id="clip0_61385:214"><path fill="#fff" transform="translate(0 .571)" d="M0 0h24.686v19.2H0z"/></clipPath></defs></svg>